<svg height="auto" viewBox="0 0 1200 1200" xmlns="http://www.w3.org/2000/svg"><path d="M0 246.8c12.6 68.484 37.8 283.27 63 342.418 25.2 59.149 37.8-52.188 63-46.673 25.2 5.514 37.8 85.662 63 74.246 25.2-11.417 37.8-45.353 63-131.328 25.2-85.975 37.8-362.353 63-298.547 25.2 63.806 37.8 515.911 63 617.577 25.2 101.665 37.8-137.803 63-109.25 25.2 28.553 37.8 270.591 63 252.013 25.2-18.579 37.8-231.92 63-344.905 25.2-112.986 37.8-187.46 63-220.024 25.2-32.565 37.8-29.45 63 57.2 25.2 86.651 37.8 375.835 63 376.052 25.2.218 37.8-381.634 63-374.966 25.2 6.668 37.8 359.316 63 408.305 25.2 48.988 37.8-73.878 63-163.363 25.2-89.486 37.8-323.559 63-284.065 25.2 39.493 37.8 445.242 63 481.531 25.2 36.29 37.8-223.134 63-300.085 25.2-76.951 50.4-67.736 63-84.67l3 701.734H0Z" fill="#444cf71a"/><path d="M0 246.8c12.6 68.484 37.8 283.27 63 342.418 25.2 59.149 37.8-52.188 63-46.673 25.2 5.514 37.8 85.662 63 74.246 25.2-11.417 37.8-45.353 63-131.328 25.2-85.975 37.8-362.353 63-298.547 25.2 63.806 37.8 515.911 63 617.577 25.2 101.665 37.8-137.803 63-109.25 25.2 28.553 37.8 270.591 63 252.013 25.2-18.579 37.8-231.92 63-344.905 25.2-112.986 37.8-187.46 63-220.024 25.2-32.565 37.8-29.45 63 57.2 25.2 86.651 37.8 375.835 63 376.052 25.2.218 37.8-381.634 63-374.966 25.2 6.668 37.8 359.316 63 408.305 25.2 48.988 37.8-73.878 63-163.363 25.2-89.486 37.8-323.559 63-284.065 25.2 39.493 37.8 445.242 63 481.531 25.2 36.29 37.8-223.134 63-300.085 25.2-76.951 50.4-67.736 63-84.67" fill="none" stroke="#444cf7" stroke-width="4"/><g fill="#444cf7"><circle cy="246.8" r="8"/><circle cx="63" cy="589.218" r="8"/><circle cx="126" cy="542.545" r="8"/><circle cx="189" cy="616.791" r="8"/><circle cx="252" cy="485.463" r="8"/><circle cx="315" cy="186.916" r="8"/><circle cx="378" cy="804.493" r="8"/><circle cx="441" cy="695.243" r="8"/><circle cx="504" cy="947.256" r="8"/><circle cx="567" cy="602.351" r="8"/><circle cx="630" cy="382.327" r="8"/><circle cx="693" cy="439.527" r="8"/><circle cx="756" cy="815.579" r="8"/><circle cx="819" cy="440.613" r="8"/><circle cx="882" cy="848.918" r="8"/><circle cx="945" cy="685.555" r="8"/><circle cx="1008" cy="401.49" r="8"/><circle cx="1071" cy="883.021" r="8"/><circle cx="1134" cy="582.936" r="8"/><circle cx="1197" cy="498.266" r="8"/></g></svg>