<svg height="auto" viewBox="0 0 1200 1200" xmlns="http://www.w3.org/2000/svg"><path d="M0 292.472c12.6-3.921 37.8-145.48 63-19.605 25.2 125.875 37.8 570.889 63 648.976 25.2 78.087 37.8-105.655 63-258.539 25.2-152.884 37.8-407.15 63-505.879 25.2-98.728 37.8-96.512 63 12.235 25.2 108.747 37.8 446.208 63 531.501 25.2 85.294 37.8-81.404 63-105.033 25.2-23.629 37.8 75.713 63-13.11 25.2-88.824 37.8-382.677 63-431.007 25.2-48.33 37.8 142.176 63 189.358 25.2 47.182 37.8-48.78 63 46.552 25.2 95.332 37.8 466.655 63 430.111 25.2-36.543 37.8-620.579 63-612.828 25.2 7.751 37.8 572.734 63 651.584 25.2 78.85 37.8-233.09 63-257.336 25.2-24.246 37.8 90.998 63 136.105 25.2 45.108 37.8 209.518 63 89.434 25.2-120.084 37.8-654.286 63-689.854 25.2-35.568 50.4 409.61 63 512.013l3 552.85H0Z" fill="#444cf71a"/><path d="M0 292.472c12.6-3.921 37.8-145.48 63-19.605 25.2 125.875 37.8 570.889 63 648.976 25.2 78.087 37.8-105.655 63-258.539 25.2-152.884 37.8-407.15 63-505.879 25.2-98.728 37.8-96.512 63 12.235 25.2 108.747 37.8 446.208 63 531.501 25.2 85.294 37.8-81.404 63-105.033 25.2-23.629 37.8 75.713 63-13.11 25.2-88.824 37.8-382.677 63-431.007 25.2-48.33 37.8 142.176 63 189.358 25.2 47.182 37.8-48.78 63 46.552 25.2 95.332 37.8 466.655 63 430.111 25.2-36.543 37.8-620.579 63-612.828 25.2 7.751 37.8 572.734 63 651.584 25.2 78.85 37.8-233.09 63-257.336 25.2-24.246 37.8 90.998 63 136.105 25.2 45.108 37.8 209.518 63 89.434 25.2-120.084 37.8-654.286 63-689.854 25.2-35.568 50.4 409.61 63 512.013" fill="none" stroke="#444cf7" stroke-width="4"/><g fill="#444cf7"><circle cy="292.472" r="8"/><circle cx="63" cy="272.867" r="8"/><circle cx="126" cy="921.843" r="8"/><circle cx="189" cy="663.304" r="8"/><circle cx="252" cy="157.425" r="8"/><circle cx="315" cy="169.66" r="8"/><circle cx="378" cy="701.161" r="8"/><circle cx="441" cy="596.128" r="8"/><circle cx="504" cy="583.017" r="8"/><circle cx="567" cy="152.011" r="8"/><circle cx="630" cy="341.369" r="8"/><circle cx="693" cy="387.921" r="8"/><circle cx="756" cy="818.032" r="8"/><circle cx="819" cy="205.204" r="8"/><circle cx="882" cy="856.788" r="8"/><circle cx="945" cy="599.452" r="8"/><circle cx="1008" cy="735.557" r="8"/><circle cx="1071" cy="824.991" r="8"/><circle cx="1134" cy="135.137" r="8"/><circle cx="1197" cy="647.15" r="8"/></g></svg>