<svg height="auto" viewBox="0 0 1200 1200" xmlns="http://www.w3.org/2000/svg"><path d="M0 516.535c12.6-65.739 37.8-360.191 63-328.694 25.2 31.497 37.8 430.34 63 486.18 25.2 55.842 37.8-142.59 63-206.973 25.2-64.383 37.8-106.676 63-114.94 25.2-8.264 37.8 62.293 63 73.619 25.2 11.325 37.8-21.926 63-16.991 25.2 4.934 37.8 18.403 63 41.662 25.2 23.26 37.8 118.773 63 74.635 25.2-44.137 37.8-261.436 63-295.322 25.2-33.886 37.8 87.656 63 125.892 25.2 38.236 37.8 70.705 63 65.288 25.2-5.417 37.8-100.808 63-92.375 25.2 8.433 37.8 131.9 63 134.54 25.2 2.642 37.8-95.187 63-121.334 25.2-26.148 37.8 20.45 63-9.402 25.2-29.853 37.8-242.193 63-139.863 25.2 102.33 37.8 634.865 63 651.513 25.2 16.649 37.8-559.11 63-568.271 25.2-9.162 50.4 417.97 63 522.464l3 401.837H0Z" fill="#444cf71a"/><path d="M0 516.535c12.6-65.739 37.8-360.191 63-328.694 25.2 31.497 37.8 430.34 63 486.18 25.2 55.842 37.8-142.59 63-206.973 25.2-64.383 37.8-106.676 63-114.94 25.2-8.264 37.8 62.293 63 73.619 25.2 11.325 37.8-21.926 63-16.991 25.2 4.934 37.8 18.403 63 41.662 25.2 23.26 37.8 118.773 63 74.635 25.2-44.137 37.8-261.436 63-295.322 25.2-33.886 37.8 87.656 63 125.892 25.2 38.236 37.8 70.705 63 65.288 25.2-5.417 37.8-100.808 63-92.375 25.2 8.433 37.8 131.9 63 134.54 25.2 2.642 37.8-95.187 63-121.334 25.2-26.148 37.8 20.45 63-9.402 25.2-29.853 37.8-242.193 63-139.863 25.2 102.33 37.8 634.865 63 651.513 25.2 16.649 37.8-559.11 63-568.271 25.2-9.162 50.4 417.97 63 522.464" fill="none" stroke="#444cf7" stroke-width="4"/><g fill="#444cf7"><circle cy="516.535" r="8"/><circle cx="63" cy="187.841" r="8"/><circle cx="126" cy="674.022" r="8"/><circle cx="189" cy="467.048" r="8"/><circle cx="252" cy="352.108" r="8"/><circle cx="315" cy="425.727" r="8"/><circle cx="378" cy="408.736" r="8"/><circle cx="441" cy="450.398" r="8"/><circle cx="504" cy="525.033" r="8"/><circle cx="567" cy="229.711" r="8"/><circle cx="630" cy="355.603" r="8"/><circle cx="693" cy="420.891" r="8"/><circle cx="756" cy="328.516" r="8"/><circle cx="819" cy="463.057" r="8"/><circle cx="882" cy="341.722" r="8"/><circle cx="945" cy="332.32" r="8"/><circle cx="1008" cy="192.457" r="8"/><circle cx="1071" cy="843.97" r="8"/><circle cx="1134" cy="275.699" r="8"/><circle cx="1197" cy="798.163" r="8"/></g></svg>