<svg height="auto" viewBox="0 0 2000 1000" xmlns="http://www.w3.org/2000/svg"><path d="M0 15.684C21 20.768 63 33.567 105 41.1c42 7.534 63 4.063 105 12.252 42 8.19 63 13.067 105 28.694 42 15.626 63 13.666 105 49.44 42 35.773 63 98.278 105 129.428 42 31.151 63 10.555 105 26.325s63 49.13 105 52.524c42 3.393 63-31.206 105-35.557 42-4.35 63 12.303 105 13.803s63-12.701 105-6.301 63 17.727 105 38.299c42 20.571 63 13.196 105 64.558 42 51.362 63 196.34 105 192.25 42-4.088 63-245.732 105-212.693 42 33.04 63 337.366 105 377.892 42 40.525 63-125.351 105-175.264 42-49.913 63-101.96 105-74.3 42 27.66 63 132.666 105 212.6s84 149.656 105 187.07l5 77.88H0Z" fill="#444cf71a"/><path d="M0 15.684C21 20.768 63 33.567 105 41.1c42 7.534 63 4.063 105 12.252 42 8.19 63 13.067 105 28.694 42 15.626 63 13.666 105 49.44 42 35.773 63 98.278 105 129.428 42 31.151 63 10.555 105 26.325s63 49.13 105 52.524c42 3.393 63-31.206 105-35.557 42-4.35 63 12.303 105 13.803s63-12.701 105-6.301 63 17.727 105 38.299c42 20.571 63 13.196 105 64.558 42 51.362 63 196.34 105 192.25 42-4.088 63-245.732 105-212.693 42 33.04 63 337.366 105 377.892 42 40.525 63-125.351 105-175.264 42-49.913 63-101.96 105-74.3 42 27.66 63 132.666 105 212.6s84 149.656 105 187.07" fill="none" stroke="#444cf7" stroke-width="4"/><g fill="#444cf7"><circle cy="15.684" r="8"/><circle cx="105" cy="41.1" r="8"/><circle cx="210" cy="53.352" r="8"/><circle cx="315" cy="82.046" r="8"/><circle cx="420" cy="131.486" r="8"/><circle cx="525" cy="260.914" r="8"/><circle cx="630" cy="287.239" r="8"/><circle cx="735" cy="339.763" r="8"/><circle cx="840" cy="304.206" r="8"/><circle cx="945" cy="318.009" r="8"/><circle cx="1050" cy="311.708" r="8"/><circle cx="1155" cy="350.007" r="8"/><circle cx="1260" cy="414.565" r="8"/><circle cx="1365" cy="606.816" r="8"/><circle cx="1470" cy="394.122" r="8"/><circle cx="1575" cy="772.014" r="8"/><circle cx="1680" cy="596.75" r="8"/><circle cx="1785" cy="522.45" r="8"/><circle cx="1890" cy="735.05" r="8"/><circle cx="1995" cy="922.12" r="8"/></g></svg>