<svg height="auto" viewBox="0 0 2000 1000" xmlns="http://www.w3.org/2000/svg"><path d="M0 26.441c21 1.79 63-1.684 105 8.95 42 10.633 63 35.09 105 44.218s63-24.633 105 1.421 63 103.403 105 128.848c42 25.446 63-.055 105-1.62 42-1.566 63-36.402 105-6.208 42 30.193 63 118.442 105 157.175 42 38.732 63 30.32 105 36.487 42 6.168 63-21.523 105-5.65 42 15.874 63 98.393 105 85.018s63-149.644 105-151.893c42-2.25 63 129.807 105 140.645 42 10.838 63-112.826 105-86.455 42 26.37 63 173.48 105 218.308s63 5.863 105 5.834c42-.029 63 12.42 105-5.98 42-18.398 63-149.083 105-86.014 42 63.07 63 386.362 105 401.364 42 15.003 84-261.081 105-326.351l5 415.462H0Z" fill="#444cf71a"/><path d="M0 26.441c21 1.79 63-1.684 105 8.95 42 10.633 63 35.09 105 44.218s63-24.633 105 1.421 63 103.403 105 128.848c42 25.446 63-.055 105-1.62 42-1.566 63-36.402 105-6.208 42 30.193 63 118.442 105 157.175 42 38.732 63 30.32 105 36.487 42 6.168 63-21.523 105-5.65 42 15.874 63 98.393 105 85.018s63-149.644 105-151.893c42-2.25 63 129.807 105 140.645 42 10.838 63-112.826 105-86.455 42 26.37 63 173.48 105 218.308s63 5.863 105 5.834c42-.029 63 12.42 105-5.98 42-18.398 63-149.083 105-86.014 42 63.07 63 386.362 105 401.364 42 15.003 84-261.081 105-326.351" fill="none" stroke="#444cf7" stroke-width="4"/><g fill="#444cf7"><circle cy="26.441" r="8"/><circle cx="105" cy="35.39" r="8"/><circle cx="210" cy="79.609" r="8"/><circle cx="315" cy="81.03" r="8"/><circle cx="420" cy="209.878" r="8"/><circle cx="525" cy="208.257" r="8"/><circle cx="630" cy="202.05" r="8"/><circle cx="735" cy="359.225" r="8"/><circle cx="840" cy="395.712" r="8"/><circle cx="945" cy="390.063" r="8"/><circle cx="1050" cy="475.08" r="8"/><circle cx="1155" cy="323.187" r="8"/><circle cx="1260" cy="463.832" r="8"/><circle cx="1365" cy="377.377" r="8"/><circle cx="1470" cy="595.685" r="8"/><circle cx="1575" cy="601.519" r="8"/><circle cx="1680" cy="595.54" r="8"/><circle cx="1785" cy="509.525" r="8"/><circle cx="1890" cy="910.889" r="8"/><circle cx="1995" cy="584.538" r="8"/></g></svg>