<svg height="auto" viewBox="0 0 792 198" xmlns="http://www.w3.org/2000/svg"><path d="M0 198h31.68V7.387q0-4-4-4H4q-4 0-4 4ZM39.6 198h31.68V10.953q0-4-4-4H43.6q-4 0-4 4ZM79.2 198h31.68V14.051q0-4-4-4H83.2q-4 0-4 4ZM118.8 198h31.68V20.872q0-4-4-4H122.8q-4 0-4 4ZM158.4 198h31.68V24.277q0-4-4-4H162.4q-4 0-4 4ZM198 198h31.68V43.75q0-4-4-4H202q-4 0-4 4ZM237.6 198h31.68V62.453q0-4-4-4H241.6q-4 0-4 4ZM277.2 198h31.68V59.7q0-4-4-4H281.2q-4 0-4 4ZM316.8 198h31.68V57.41q0-4-4-4H320.8q-4 0-4 4ZM356.4 198h31.68V66.178q0-4-4-4H360.4q-4 0-4 4ZM396 198h31.68V56.376q0-4-4-4H400q-4 0-4 4ZM435.6 198h31.68V87.167q0-4-4-4H439.6q-4 0-4 4ZM475.2 198h31.68V75q0-4-4-4H479.2q-4 0-4 4ZM514.8 198h31.68V87.88q0-4-4-4H518.8q-4 0-4 4ZM554.4 198h31.68V78.84q0-4-4-4H558.4q-4 0-4 4ZM594 198h31.68v-57.488q0-4-4-4H598q-4 0-4 4ZM633.6 198h31.68v-95.729q0-4-4-4H637.6q-4 0-4 4ZM673.2 198h31.68v-59.232q0-4-4-4H677.2q-4 0-4 4ZM712.8 198h31.68v-56.403q0-4-4-4H716.8q-4 0-4 4ZM752.4 198h31.68v-4.336q0-4-4-4H756.4q-4 0-4 4Z" fill="#444cf7"/></svg>